<?xml version="1.0" encoding="UTF-8" standalone="no"?>
<!-- Generator: Adobe Illustrator 12.0.0, SVG Export Plug-In . SVG Version: 6.00 Build 51448)  -->
<svg
   xmlns:dc="http://purl.org/dc/elements/1.1/"
   xmlns:cc="http://web.resource.org/cc/"
   xmlns:rdf="http://www.w3.org/1999/02/22-rdf-syntax-ns#"
   xmlns:svg="http://www.w3.org/2000/svg"
   xmlns="http://www.w3.org/2000/svg"
   xmlns:sodipodi="http://sodipodi.sourceforge.net/DTD/sodipodi-0.dtd"
   xmlns:inkscape="http://www.inkscape.org/namespaces/inkscape"
   version="1.1"
   id="Layer_1"
   width="426.989"
   height="69.875"
   viewBox="0 0 426.989 69.875"
   overflow="visible"
   enable-background="new 0 0 426.989 69.875"
   xml:space="preserve"
   sodipodi:version="0.32"
   inkscape:version="0.45.1"
   sodipodi:docname="monpspace_font.svg"
   inkscape:output_extension="org.inkscape.output.svg.inkscape"
   sodipodi:docbase="C:\Documents and Settings\Administrator\Desktop\OCR"
   inkscape:export-filename="C:\Documents and Settings\ex100187\Desktop\Consolas\ProFontWindows_font2.png"
   inkscape:export-xdpi="90"
   inkscape:export-ydpi="90"><metadata
   id="metadata24"><rdf:RDF><cc:Work
       rdf:about=""><dc:format>image/svg+xml</dc:format><dc:type
         rdf:resource="http://purl.org/dc/dcmitype/StillImage" /></cc:Work></rdf:RDF></metadata><defs
   id="defs22" /><sodipodi:namedview
   inkscape:window-height="719"
   inkscape:window-width="1024"
   inkscape:pageshadow="2"
   inkscape:pageopacity="0.0"
   guidetolerance="10.0"
   gridtolerance="10.0"
   objecttolerance="10.0"
   borderopacity="1.0"
   bordercolor="#666666"
   pagecolor="#ffffff"
   id="base"
   inkscape:zoom="2.2308335"
   inkscape:cx="213.49451"
   inkscape:cy="102.30066"
   inkscape:window-x="-4"
   inkscape:window-y="-4"
   inkscape:current-layer="g3" />
<g
   id="g3">
	
	
	
	
	
	
	
	


<path
   style="font-size:78px;font-style:normal;font-weight:normal;fill:#000000;fill-opacity:1;stroke:none;stroke-width:1px;stroke-linecap:butt;stroke-linejoin:miter;stroke-opacity:1;font-family:monospace"
   d="M 10.180719,16.272488 L 10.180719,19.509792 C 12.897505,16.589903 15.626994,15.129944 18.369196,15.12991 C 20.019568,15.129944 21.466832,15.567931 22.710993,16.443874 C 23.955111,17.319883 24.996126,18.646542 25.83404,20.423855 C 27.255889,18.646542 28.696805,17.319883 30.156794,16.443874 C 31.616724,15.567931 33.083032,15.129944 34.555719,15.12991 C 36.866231,15.129944 38.707049,15.878966 40.07818,17.37698 C 41.880874,19.306697 42.782241,21.414117 42.782282,23.699245 L 42.782282,46.055691 L 45.486384,46.055691 C 46.248057,46.055694 46.793955,46.20169 47.124079,46.493679 C 47.454111,46.785674 47.61915,47.17288 47.619196,47.6553 C 47.61915,48.112333 47.454111,48.493192 47.124079,48.797878 C 46.793955,49.102566 46.248057,49.25491 45.486384,49.25491 L 39.583063,49.25491 L 39.583063,24.003933 C 39.583025,22.37896 39.087908,21.033258 38.097712,19.966824 C 37.107442,18.900448 35.964865,18.367245 34.669977,18.367214 C 33.501976,18.367245 32.270532,18.805233 30.975641,19.681179 C 29.680691,20.557184 28.208036,22.277397 26.557673,24.841824 L 26.557673,46.055691 L 29.223688,46.055691 C 29.985378,46.055694 30.531276,46.20169 30.861384,46.493679 C 31.191432,46.785674 31.356471,47.17288 31.356501,47.6553 C 31.356471,48.112333 31.191432,48.493192 30.861384,48.797878 C 30.531276,49.102566 29.985378,49.25491 29.223688,49.25491 L 23.320368,49.25491 L 23.320368,24.232449 C 23.320346,22.531303 22.818882,21.128473 21.815973,20.023952 C 20.813024,18.919491 19.68949,18.367245 18.445368,18.367214 C 17.302774,18.367245 16.172892,18.735409 15.055719,19.471706 C 13.506879,20.512751 11.881881,22.302788 10.180719,24.841824 L 10.180719,46.055691 L 12.884821,46.055691 C 13.646528,46.055694 14.192425,46.20169 14.522516,46.493679 C 14.852581,46.785674 15.01762,47.17288 15.017634,47.6553 C 15.01762,48.112333 14.852581,48.493192 14.522516,48.797878 C 14.192425,49.102566 13.646528,49.25491 12.884821,49.25491 L 4.2773992,49.25491 C 3.5156783,49.25491 2.9697804,49.102566 2.6397039,48.797878 C 2.3096248,48.493192 2.1445859,48.112333 2.1445867,47.6553 C 2.1445859,47.17288 2.3096248,46.785674 2.6397039,46.493679 C 2.9697804,46.20169 3.5156783,46.055694 4.2773992,46.055691 L 6.9815007,46.055691 L 6.9815007,19.509792 L 4.2773992,19.509792 C 3.5156783,19.509822 2.9697804,19.357478 2.6397039,19.052761 C 2.3096248,18.748104 2.1445859,18.35455 2.1445867,17.872097 C 2.1445859,17.415098 2.3096248,17.034239 2.6397039,16.729519 C 2.9697804,16.424864 3.5156783,16.272521 4.2773992,16.272488 L 10.180719,16.272488 z M 89.399469,32.83987 C 89.399428,37.714882 87.653824,41.87894 84.162653,45.332058 C 80.67141,48.785183 76.462918,50.511744 71.537165,50.511745 C 66.560584,50.511744 62.333049,48.778836 58.854548,45.313015 C 55.376025,41.847202 53.636769,37.689491 53.636774,32.83987 C 53.636769,27.964892 55.376025,23.794486 58.854548,20.32864 C 62.333049,16.862852 66.560584,15.129944 71.537165,15.12991 C 76.462918,15.129944 80.67141,16.856504 84.162653,20.309597 C 87.653824,23.762748 89.399428,27.939501 89.399469,32.83987 L 89.399469,32.83987 z M 86.162165,32.83987 C 86.162127,28.828172 84.733906,25.413136 81.877497,22.594753 C 79.021021,19.776423 75.561551,18.367245 71.499079,18.367214 C 67.43656,18.367245 63.97709,19.782771 61.120661,22.613796 C 58.264205,25.444875 56.835984,28.853563 56.835993,32.83987 C 56.835984,36.80082 58.264205,40.203161 61.120661,43.046902 C 63.97709,45.890655 67.43656,47.312529 71.499079,47.312527 C 75.561551,47.312529 79.021021,45.897003 81.877497,43.065945 C 84.733906,40.234899 86.162127,36.826211 86.162165,32.83987 L 86.162165,32.83987 z M 107.94732,16.272488 L 107.94732,21.109402 C 110.18168,18.849666 112.20023,17.288145 114.00299,16.424831 C 115.8057,15.561584 117.83695,15.129944 120.09674,15.12991 C 122.53421,15.129944 124.75588,15.650451 126.76177,16.691433 C 128.18362,17.453184 129.47219,18.716366 130.6275,20.480984 C 131.78273,22.245659 132.36037,24.054739 132.36041,25.90823 L 132.36041,46.055691 L 135.06451,46.055691 C 135.82619,46.055694 136.37208,46.20169 136.7022,46.493679 C 137.03224,46.785674 137.19728,47.17288 137.19732,47.6553 C 137.19728,48.112333 137.03224,48.493192 136.7022,48.797878 C 136.37208,49.102566 135.82619,49.25491 135.06451,49.25491 L 126.49517,49.25491 C 125.70803,49.25491 125.14944,49.102566 124.81939,48.797878 C 124.48928,48.493192 124.32424,48.112333 124.32427,47.6553 C 124.32424,47.17288 124.48928,46.785674 124.81939,46.493679 C 125.14944,46.20169 125.70803,46.055694 126.49517,46.055691 L 129.16119,46.055691 L 129.16119,26.441433 C 129.16115,24.181692 128.33596,22.27105 126.6856,20.709499 C 125.03518,19.148006 122.8262,18.367245 120.05865,18.367214 C 117.9512,18.367245 116.12308,18.792538 114.57427,19.643093 C 113.02543,20.493708 110.81645,22.607475 107.94732,25.984402 L 107.94732,46.055691 L 111.56549,46.055691 C 112.32719,46.055694 112.87308,46.20169 113.20318,46.493679 C 113.53324,46.785674 113.69828,47.17288 113.6983,47.6553 C 113.69828,48.112333 113.53324,48.493192 113.20318,48.797878 C 112.87308,49.102566 112.32719,49.25491 111.56549,49.25491 L 101.12994,49.25491 C 100.36821,49.25491 99.822316,49.102566 99.492243,48.797878 C 99.162161,48.493192 98.997122,48.112333 98.997126,47.6553 C 98.997122,47.17288 99.162161,46.785674 99.492243,46.493679 C 99.822316,46.20169 100.36821,46.055694 101.12994,46.055691 L 104.7481,46.055691 L 104.7481,19.509792 L 102.044,19.509792 C 101.28228,19.509822 100.73638,19.357478 100.40631,19.052761 C 100.07622,18.748104 99.911183,18.35455 99.911188,17.872097 C 99.911183,17.415098 100.07622,17.034239 100.40631,16.729519 C 100.73638,16.424864 101.28228,16.272521 102.044,16.272488 L 107.94732,16.272488 z M 182.93853,32.83987 C 182.93849,37.714882 181.19289,41.87894 177.70172,45.332058 C 174.21047,48.785183 170.00198,50.511744 165.07623,50.511745 C 160.09965,50.511744 155.87211,48.778836 152.39361,45.313015 C 148.91509,41.847202 147.17583,37.689491 147.17584,32.83987 C 147.17583,27.964892 148.91509,23.794486 152.39361,20.32864 C 155.87211,16.862852 160.09965,15.129944 165.07623,15.12991 C 170.00198,15.129944 174.21047,16.856504 177.70172,20.309597 C 181.19289,23.762748 182.93849,27.939501 182.93853,32.83987 L 182.93853,32.83987 z M 179.70123,32.83987 C 179.70119,28.828172 178.27297,25.413136 175.41656,22.594753 C 172.56008,19.776423 169.10061,18.367245 165.03814,18.367214 C 160.97562,18.367245 157.51615,19.782771 154.65972,22.613796 C 151.80327,25.444875 150.37505,28.853563 150.37506,32.83987 C 150.37505,36.80082 151.80327,40.203161 154.65972,43.046902 C 157.51615,45.890655 160.97562,47.312529 165.03814,47.312527 C 169.10061,47.312529 172.56008,45.897003 175.41656,43.065945 C 178.27297,40.234899 179.70119,36.826211 179.70123,32.83987 L 179.70123,32.83987 z M 222.39556,18.367214 C 222.39553,17.630918 222.54787,17.097715 222.85259,16.767605 C 223.15725,16.43756 223.53811,16.272521 223.99517,16.272488 C 224.47756,16.272521 224.87111,16.43756 225.17584,16.767605 C 225.48049,17.097715 225.63283,17.656308 225.63287,18.443386 L 225.63287,23.927761 C 225.63283,24.689504 225.48049,25.235402 225.17584,25.565456 C 224.87111,25.895558 224.47756,26.060597 223.99517,26.060574 C 223.5635,26.060597 223.20168,25.920948 222.90972,25.641628 C 222.6177,25.362355 222.44631,24.905324 222.39556,24.270535 C 222.24319,22.747124 221.45608,21.490289 220.03424,20.500027 C 217.95217,19.078182 215.19729,18.367245 211.76959,18.367214 C 208.18949,18.367245 205.40922,19.090877 203.42877,20.538113 C 201.93071,21.629937 201.18168,22.848686 201.1817,24.194363 C 201.18168,25.717824 202.07035,26.987354 203.84771,28.002956 C 205.06645,28.713914 207.37699,29.259812 210.77935,29.640652 C 215.22268,30.123093 218.30764,30.668991 220.03424,31.278347 C 222.49709,32.167036 224.33156,33.39848 225.53765,34.972683 C 226.74367,36.546914 227.3467,38.248085 227.34674,40.076199 C 227.3467,42.793002 226.03908,45.211457 223.42388,47.33157 C 220.80862,49.451687 216.97464,50.511744 211.92193,50.511745 C 206.86918,50.511744 202.73051,49.229519 199.50591,46.665066 C 199.5059,47.528349 199.45512,48.086942 199.35357,48.340847 C 199.252,48.594754 199.06792,48.810574 198.80132,48.988308 C 198.53471,49.166042 198.23637,49.25491 197.90631,49.25491 C 197.44927,49.25491 197.06841,49.089871 196.76373,48.759792 C 196.45903,48.429715 196.30669,47.883817 196.3067,47.122097 L 196.3067,40.53323 C 196.30669,39.771521 196.45268,39.225623 196.74468,38.895535 C 197.03667,38.565467 197.42387,38.400428 197.90631,38.400417 C 198.36333,38.400428 198.75053,38.559119 199.06793,38.876492 C 199.3853,39.193884 199.54399,39.619177 199.544,40.15237 C 199.54399,41.320347 199.83598,42.297885 200.41998,43.084988 C 201.30864,44.303743 202.72416,45.313019 204.66656,46.11282 C 206.60892,46.912627 208.98929,47.312529 211.80767,47.312527 C 215.97171,47.312529 219.06936,46.538115 221.10064,44.989285 C 223.13186,43.440462 224.14748,41.802769 224.14752,40.076199 C 224.14748,38.095741 223.11916,36.508829 221.06256,35.315456 C 218.98049,34.122112 215.95266,33.322308 211.97906,32.916042 C 208.00541,32.509809 205.15531,31.976606 203.42877,31.316433 C 201.70219,30.656295 200.35649,29.666062 199.39166,28.34573 C 198.4268,27.02544 197.94438,25.603566 197.94439,24.080105 C 197.94438,21.337945 199.29008,19.160701 201.9815,17.548367 C 204.67289,15.936095 207.8848,15.129944 211.61724,15.12991 C 216.03518,15.129944 219.62795,16.209044 222.39556,18.367214 L 222.39556,18.367214 z M 246.54205,16.272488 L 246.54205,22.099636 C 248.44633,19.789119 250.49027,18.049863 252.67388,16.881863 C 254.85746,15.713927 257.4346,15.129944 260.40533,15.12991 C 263.55374,15.129944 266.46096,15.866271 269.12701,17.338894 C 271.79299,18.811581 273.85597,20.861872 275.31597,23.489773 C 276.77589,26.117726 277.50587,28.878953 277.50591,31.773464 C 277.50587,36.36918 275.86183,40.298376 272.57379,43.561062 C 269.28567,46.82376 265.24221,48.455106 260.44341,48.455105 C 254.7305,48.455106 250.09672,46.131866 246.54205,41.485378 L 246.54205,60.756863 L 254.31158,60.756863 C 255.07328,60.756851 255.61918,60.902847 255.94927,61.194851 C 256.27933,61.486831 256.44437,61.874038 256.44439,62.356472 C 256.44437,62.81349 256.27933,63.194349 255.94927,63.49905 C 255.61918,63.803723 255.07328,63.956067 254.31158,63.956081 L 239.03912,63.956081 C 238.2774,63.956067 237.7315,63.810071 237.40142,63.518093 C 237.07134,63.226087 236.9063,62.83888 236.90631,62.356472 C 236.9063,61.874038 237.07134,61.486831 237.40142,61.194851 C 237.7315,60.902847 238.2774,60.756851 239.03912,60.756863 L 243.34283,60.756863 L 243.34283,19.509792 L 239.03912,19.509792 C 238.2774,19.509822 237.7315,19.357478 237.40142,19.052761 C 237.07134,18.748104 236.9063,18.35455 236.90631,17.872097 C 236.9063,17.415098 237.07134,17.034239 237.40142,16.729519 C 237.7315,16.424864 238.2774,16.272521 239.03912,16.272488 L 246.54205,16.272488 z M 274.26861,31.773464 C 274.26857,28.091845 272.92922,24.937063 270.25054,22.309109 C 267.5718,19.681209 264.30276,18.367245 260.44341,18.367214 C 256.55863,18.367245 253.27055,19.687556 250.57916,22.328152 C 247.88774,24.968801 246.54204,28.117235 246.54205,31.773464 C 246.54204,35.455119 247.88774,38.616248 250.57916,41.256863 C 253.27055,43.897493 256.55863,45.217804 260.44341,45.2178 C 264.27737,45.217804 267.54006,43.903841 270.2315,41.275906 C 272.92287,38.647987 274.26857,35.480509 274.26861,31.773464 L 274.26861,31.773464 z M 314.56353,49.25491 L 314.56353,44.646511 C 309.91702,48.556668 304.95316,50.511744 299.67193,50.511745 C 295.83793,50.511744 292.84184,49.540554 290.68365,47.598171 C 288.52544,45.655792 287.44634,43.275423 287.44634,40.457058 C 287.44634,37.359414 288.86821,34.655315 291.71197,32.344753 C 294.55571,30.034226 298.70707,28.878953 304.16607,28.878933 C 305.6387,28.878953 307.23831,28.974168 308.9649,29.164577 C 310.69143,29.355027 312.55764,29.653367 314.56353,30.059597 L 314.56353,24.87991 C 314.5635,23.127983 313.751,21.604547 312.12603,20.309597 C 310.501,19.014705 308.06351,18.367245 304.81353,18.367214 C 302.32523,18.367245 298.83402,19.090877 294.3399,20.538113 C 293.52739,20.792047 293.00688,20.919 292.77838,20.918972 C 292.37212,20.919 292.02299,20.766657 291.73101,20.461941 C 291.43901,20.157282 291.29301,19.776423 291.29302,19.319363 C 291.29301,18.887752 291.41997,18.544979 291.67388,18.291042 C 292.02934,17.910214 293.46391,17.389707 295.97759,16.729519 C 299.93851,15.663146 302.9346,15.129944 304.96588,15.12991 C 309.00296,15.129944 312.15139,16.126525 314.41119,18.119656 C 316.67092,20.112849 317.8008,22.366265 317.80084,24.87991 L 317.80084,46.055691 L 322.06646,46.055691 C 322.85353,46.055694 323.41212,46.20169 323.74224,46.493679 C 324.07228,46.785674 324.23732,47.17288 324.23736,47.6553 C 324.23732,48.112333 324.07228,48.493192 323.74224,48.797878 C 323.41212,49.102566 322.85353,49.25491 322.06646,49.25491 L 314.56353,49.25491 z M 314.56353,33.334988 C 313.06545,32.903363 311.47854,32.585981 309.80279,32.382839 C 308.12698,32.179731 306.36234,32.078169 304.50884,32.078152 C 299.86234,32.078169 296.23149,33.081098 293.61627,35.086941 C 291.63579,36.585 290.64555,38.375038 290.64556,40.457058 C 290.64555,42.386752 291.40092,44.011751 292.91168,45.332058 C 294.42241,46.652373 296.62504,47.312529 299.51959,47.312527 C 302.28714,47.312529 304.85794,46.760283 307.23199,45.655788 C 309.60598,44.551301 312.04983,42.793002 314.56353,40.380886 L 314.56353,33.334988 z M 365.48443,19.509792 L 365.48443,18.443386 C 365.48439,17.656308 365.63674,17.097715 365.94146,16.767605 C 366.24611,16.43756 366.62697,16.272521 367.08404,16.272488 C 367.56642,16.272521 367.95998,16.43756 368.2647,16.767605 C 368.56935,17.097715 368.7217,17.656308 368.72174,18.443386 L 368.72174,25.679714 C 368.6963,26.466846 368.53761,27.02544 368.24566,27.355495 C 367.95363,27.685595 367.56642,27.850634 367.08404,27.850613 C 366.65236,27.850634 366.29055,27.704638 365.99859,27.412624 C 365.70656,27.120654 365.53517,26.631885 365.48443,25.946316 C 365.33205,24.143607 364.14504,22.429741 361.9234,20.804714 C 359.70168,19.179744 356.71194,18.367245 352.95416,18.367214 C 348.20609,18.367245 344.60063,19.852595 342.13775,22.823269 C 339.67485,25.793995 338.44341,29.196336 338.44341,33.0303 C 338.44341,37.168984 339.8018,40.58402 342.51861,43.275417 C 345.23539,45.966827 348.75199,47.312529 353.06841,47.312527 C 355.55667,47.312529 358.08938,46.855498 360.66656,45.941433 C 363.24367,45.027375 365.57326,43.55472 367.65533,41.523464 C 368.18849,41.01566 368.65822,40.761754 369.06451,40.761745 C 369.49611,40.761754 369.85792,40.90775 370.14996,41.199734 C 370.44191,41.491734 370.5879,41.85355 370.58795,42.285183 C 370.5879,43.376986 369.30568,44.760773 366.74127,46.43655 C 362.60256,49.153347 357.99417,50.511744 352.91607,50.511745 C 347.76176,50.511744 343.52787,48.867703 340.21441,45.579617 C 336.90093,42.291538 335.24419,38.121132 335.2442,33.068386 C 335.24419,27.914111 336.93901,23.635795 340.32867,20.233425 C 343.7183,16.831114 347.99027,15.129944 353.14459,15.12991 C 358.04495,15.129944 362.15823,16.589903 365.48443,19.509792 L 365.48443,19.509792 z M 416.2149,33.525417 L 383.61334,33.525417 C 384.17192,37.664101 385.90483,40.996617 388.81207,43.522976 C 391.71928,46.049346 395.31839,47.312529 399.60943,47.312527 C 401.99612,47.312529 404.4971,46.918974 407.11236,46.131863 C 409.72756,45.344757 411.86037,44.303743 413.5108,43.008816 C 413.99318,42.627963 414.41213,42.437534 414.76763,42.437527 C 415.17384,42.437534 415.52931,42.596225 415.83404,42.913601 C 416.13869,43.23099 416.29103,43.605501 416.29107,44.037136 C 416.29103,44.468781 416.08791,44.887726 415.6817,45.293972 C 414.46291,46.563506 412.29836,47.750516 409.18804,48.855007 C 406.07766,49.959499 402.88479,50.511744 399.60943,50.511745 C 394.12504,50.511744 389.54838,48.715359 385.87945,45.122585 C 382.2105,41.52982 380.37603,37.181679 380.37603,32.078152 C 380.37603,27.431689 382.09624,23.445365 385.53668,20.119167 C 388.97709,16.793028 393.23637,15.129944 398.31451,15.12991 C 403.54495,15.129944 407.84866,16.837461 411.22564,20.252468 C 414.60256,23.667533 416.26564,28.091845 416.2149,33.525417 L 416.2149,33.525417 z M 412.97759,30.288113 C 412.34279,26.758838 410.67336,23.889701 407.96929,21.680691 C 405.26516,19.471736 402.0469,18.367245 398.31451,18.367214 C 394.58207,18.367245 391.37016,19.459041 388.67877,21.642605 C 385.98735,23.826224 384.31157,26.708057 383.65142,30.288113 L 412.97759,30.288113 z "
   id="text2158" /></g>
</svg>